<mxfile host="app.diagrams.net" modified="2023-03-13T00:21:19.787Z" agent="5.0 (Macintosh; Intel Mac OS X 10_15_7) AppleWebKit/605.1.15 (KHTML, like Gecko) Version/16.3 Safari/605.1.15" etag="fsJ7OS2UOMz0e3O98bqV" version="21.0.2" type="github">
  <diagram name="Page-1" id="16e2658f-23c8-b752-8be9-c03fbebb8bbe">
    <mxGraphModel dx="1434" dy="742" grid="1" gridSize="10" guides="1" tooltips="1" connect="1" arrows="1" fold="1" page="1" pageScale="1" pageWidth="1100" pageHeight="850" background="none" math="0" shadow="0">
      <root>
        <mxCell id="0" />
        <mxCell id="1" parent="0" />
        <mxCell id="zRu4ixjuDNPaifkA6n76-1" value="" style="pointerEvents=1;verticalLabelPosition=bottom;shadow=0;dashed=0;align=center;html=1;verticalAlign=top;shape=mxgraph.electrical.inductors.transformer_1;rotation=90;" parent="1" vertex="1">
          <mxGeometry x="700" y="220" width="84" height="80" as="geometry" />
        </mxCell>
        <mxCell id="zRu4ixjuDNPaifkA6n76-3" value="" style="rounded=0;whiteSpace=wrap;html=1;" parent="1" vertex="1">
          <mxGeometry x="120" y="240" width="50" height="80" as="geometry" />
        </mxCell>
        <mxCell id="zRu4ixjuDNPaifkA6n76-4" value="" style="endArrow=none;html=1;rounded=0;exitX=0;exitY=0;exitDx=0;exitDy=0;entryX=1;entryY=0;entryDx=0;entryDy=0;" parent="1" source="zRu4ixjuDNPaifkA6n76-3" target="zRu4ixjuDNPaifkA6n76-3" edge="1">
          <mxGeometry width="50" height="50" relative="1" as="geometry">
            <mxPoint x="460" y="310" as="sourcePoint" />
            <mxPoint x="240" y="300" as="targetPoint" />
            <Array as="points">
              <mxPoint x="145" y="270" />
            </Array>
          </mxGeometry>
        </mxCell>
        <mxCell id="zRu4ixjuDNPaifkA6n76-5" value="" style="endArrow=none;html=1;rounded=0;exitX=0.5;exitY=0;exitDx=0;exitDy=0;entryX=0.7;entryY=0;entryDx=0;entryDy=0;entryPerimeter=0;" parent="1" source="zRu4ixjuDNPaifkA6n76-3" target="zRu4ixjuDNPaifkA6n76-10" edge="1">
          <mxGeometry width="50" height="50" relative="1" as="geometry">
            <mxPoint x="460" y="310" as="sourcePoint" />
            <mxPoint x="350" y="60" as="targetPoint" />
            <Array as="points">
              <mxPoint x="145" y="60" />
              <mxPoint x="357" y="60" />
            </Array>
          </mxGeometry>
        </mxCell>
        <mxCell id="zRu4ixjuDNPaifkA6n76-7" value="" style="verticalLabelPosition=bottom;shadow=0;dashed=0;align=center;html=1;verticalAlign=top;shape=mxgraph.electrical.mosfets1.n-channel_mosfet_1;" parent="1" vertex="1">
          <mxGeometry x="302.5" y="340" width="77.5" height="80" as="geometry" />
        </mxCell>
        <mxCell id="zRu4ixjuDNPaifkA6n76-10" value="" style="verticalLabelPosition=bottom;shadow=0;dashed=0;align=center;html=1;verticalAlign=top;shape=mxgraph.electrical.mosfets1.n-channel_mosfet_1;" parent="1" vertex="1">
          <mxGeometry x="302.5" y="100" width="77.5" height="80" as="geometry" />
        </mxCell>
        <mxCell id="zRu4ixjuDNPaifkA6n76-11" value="" style="verticalLabelPosition=bottom;shadow=0;dashed=0;align=center;html=1;verticalAlign=top;shape=mxgraph.electrical.mosfets1.n-channel_mosfet_1;" parent="1" vertex="1">
          <mxGeometry x="550" y="340" width="77.5" height="80" as="geometry" />
        </mxCell>
        <mxCell id="zRu4ixjuDNPaifkA6n76-12" value="" style="verticalLabelPosition=bottom;shadow=0;dashed=0;align=center;html=1;verticalAlign=top;shape=mxgraph.electrical.mosfets1.n-channel_mosfet_1;" parent="1" vertex="1">
          <mxGeometry x="550" y="100" width="77.5" height="80" as="geometry" />
        </mxCell>
        <mxCell id="zRu4ixjuDNPaifkA6n76-13" value="" style="endArrow=none;html=1;rounded=0;entryX=0.7;entryY=1;entryDx=0;entryDy=0;entryPerimeter=0;exitDx=0;exitDy=0;exitPerimeter=0;startArrow=none;" parent="1" source="d7M0JOHdm0b0EtyHFHnC-1" target="zRu4ixjuDNPaifkA6n76-10" edge="1">
          <mxGeometry width="50" height="50" relative="1" as="geometry">
            <mxPoint x="460" y="310" as="sourcePoint" />
            <mxPoint x="510" y="260" as="targetPoint" />
          </mxGeometry>
        </mxCell>
        <mxCell id="zRu4ixjuDNPaifkA6n76-14" value="" style="endArrow=none;html=1;rounded=0;exitX=0.5;exitY=1;exitDx=0;exitDy=0;entryX=0.7;entryY=1;entryDx=0;entryDy=0;entryPerimeter=0;" parent="1" source="zRu4ixjuDNPaifkA6n76-3" target="zRu4ixjuDNPaifkA6n76-7" edge="1">
          <mxGeometry width="50" height="50" relative="1" as="geometry">
            <mxPoint x="460" y="310" as="sourcePoint" />
            <mxPoint x="510" y="260" as="targetPoint" />
            <Array as="points">
              <mxPoint x="145" y="460" />
              <mxPoint x="357" y="460" />
            </Array>
          </mxGeometry>
        </mxCell>
        <mxCell id="zRu4ixjuDNPaifkA6n76-15" value="" style="endArrow=none;html=1;rounded=0;entryX=0.7;entryY=1;entryDx=0;entryDy=0;entryPerimeter=0;exitX=0.5;exitY=1;exitDx=0;exitDy=0;" parent="1" source="zRu4ixjuDNPaifkA6n76-3" target="zRu4ixjuDNPaifkA6n76-11" edge="1">
          <mxGeometry width="50" height="50" relative="1" as="geometry">
            <mxPoint x="150" y="320" as="sourcePoint" />
            <mxPoint x="510" y="260" as="targetPoint" />
            <Array as="points">
              <mxPoint x="145" y="460" />
              <mxPoint x="604" y="460" />
            </Array>
          </mxGeometry>
        </mxCell>
        <mxCell id="zRu4ixjuDNPaifkA6n76-16" value="" style="endArrow=none;html=1;rounded=0;entryX=0.7;entryY=0;entryDx=0;entryDy=0;entryPerimeter=0;exitX=0.5;exitY=0;exitDx=0;exitDy=0;" parent="1" source="zRu4ixjuDNPaifkA6n76-3" target="zRu4ixjuDNPaifkA6n76-12" edge="1">
          <mxGeometry width="50" height="50" relative="1" as="geometry">
            <mxPoint x="460" y="310" as="sourcePoint" />
            <mxPoint x="510" y="260" as="targetPoint" />
            <Array as="points">
              <mxPoint x="145" y="60" />
              <mxPoint x="604" y="60" />
            </Array>
          </mxGeometry>
        </mxCell>
        <mxCell id="zRu4ixjuDNPaifkA6n76-17" value="" style="endArrow=none;html=1;rounded=0;entryX=0.7;entryY=1;entryDx=0;entryDy=0;entryPerimeter=0;exitDx=0;exitDy=0;exitPerimeter=0;startArrow=none;" parent="1" source="d7M0JOHdm0b0EtyHFHnC-4" target="zRu4ixjuDNPaifkA6n76-12" edge="1">
          <mxGeometry width="50" height="50" relative="1" as="geometry">
            <mxPoint x="460" y="310" as="sourcePoint" />
            <mxPoint x="510" y="260" as="targetPoint" />
          </mxGeometry>
        </mxCell>
        <mxCell id="zRu4ixjuDNPaifkA6n76-26" value="" style="pointerEvents=1;verticalLabelPosition=bottom;shadow=0;dashed=0;align=center;html=1;verticalAlign=top;shape=mxgraph.electrical.electro-mechanical.make_contact;" parent="1" vertex="1">
          <mxGeometry x="850" y="202" width="75" height="16" as="geometry" />
        </mxCell>
        <mxCell id="zRu4ixjuDNPaifkA6n76-27" value="" style="endArrow=none;html=1;rounded=0;entryX=0;entryY=1;entryDx=0;entryDy=0;entryPerimeter=0;exitX=0;exitY=0;exitDx=0;exitDy=0;exitPerimeter=0;" parent="1" source="zRu4ixjuDNPaifkA6n76-1" target="zRu4ixjuDNPaifkA6n76-26" edge="1">
          <mxGeometry width="50" height="50" relative="1" as="geometry">
            <mxPoint x="460" y="310" as="sourcePoint" />
            <mxPoint x="510" y="260" as="targetPoint" />
          </mxGeometry>
        </mxCell>
        <mxCell id="zRu4ixjuDNPaifkA6n76-28" value="" style="pointerEvents=1;verticalLabelPosition=bottom;shadow=0;dashed=0;align=center;html=1;verticalAlign=top;shape=mxgraph.electrical.signal_sources.source;aspect=fixed;points=[[0.5,0,0],[1,0.5,0],[0.5,1,0],[0,0.5,0]];elSignalType=ac;" parent="1" vertex="1">
          <mxGeometry x="920" y="234" width="50" height="50" as="geometry" />
        </mxCell>
        <mxCell id="zRu4ixjuDNPaifkA6n76-30" value="" style="endArrow=none;html=1;rounded=0;entryX=0.5;entryY=0;entryDx=0;entryDy=0;entryPerimeter=0;exitX=1;exitY=1;exitDx=0;exitDy=0;exitPerimeter=0;" parent="1" source="zRu4ixjuDNPaifkA6n76-26" target="zRu4ixjuDNPaifkA6n76-28" edge="1">
          <mxGeometry width="50" height="50" relative="1" as="geometry">
            <mxPoint x="700" y="310" as="sourcePoint" />
            <mxPoint x="750" y="260" as="targetPoint" />
            <Array as="points">
              <mxPoint x="945" y="218" />
            </Array>
          </mxGeometry>
        </mxCell>
        <mxCell id="zRu4ixjuDNPaifkA6n76-31" value="" style="endArrow=none;html=1;rounded=0;entryX=0.5;entryY=1;entryDx=0;entryDy=0;entryPerimeter=0;exitX=1;exitY=0;exitDx=0;exitDy=0;exitPerimeter=0;" parent="1" source="zRu4ixjuDNPaifkA6n76-1" target="zRu4ixjuDNPaifkA6n76-28" edge="1">
          <mxGeometry width="50" height="50" relative="1" as="geometry">
            <mxPoint x="780" y="310" as="sourcePoint" />
            <mxPoint x="750" y="260" as="targetPoint" />
            <Array as="points">
              <mxPoint x="945" y="302" />
            </Array>
          </mxGeometry>
        </mxCell>
        <mxCell id="d7M0JOHdm0b0EtyHFHnC-2" value="" style="endArrow=none;html=1;rounded=0;entryDx=0;entryDy=0;entryPerimeter=0;exitX=0.7;exitY=0;exitDx=0;exitDy=0;exitPerimeter=0;" edge="1" parent="1" source="zRu4ixjuDNPaifkA6n76-7" target="d7M0JOHdm0b0EtyHFHnC-1">
          <mxGeometry width="50" height="50" relative="1" as="geometry">
            <mxPoint x="357" y="340" as="sourcePoint" />
            <mxPoint x="357" y="210" as="targetPoint" />
          </mxGeometry>
        </mxCell>
        <mxCell id="d7M0JOHdm0b0EtyHFHnC-1" value="" style="shape=waypoint;sketch=0;fillStyle=solid;size=6;pointerEvents=1;points=[];fillColor=none;resizable=0;rotatable=0;perimeter=centerPerimeter;snapToPoint=1;strokeWidth=3;" vertex="1" parent="1">
          <mxGeometry x="347" y="209" width="20" height="20" as="geometry" />
        </mxCell>
        <mxCell id="d7M0JOHdm0b0EtyHFHnC-3" value="" style="endArrow=none;html=1;rounded=0;entryX=0;entryY=1;entryDx=0;entryDy=0;entryPerimeter=0;exitX=0.45;exitY=-0.1;exitDx=0;exitDy=0;exitPerimeter=0;" edge="1" parent="1" source="d7M0JOHdm0b0EtyHFHnC-1" target="zRu4ixjuDNPaifkA6n76-1">
          <mxGeometry width="50" height="50" relative="1" as="geometry">
            <mxPoint x="520" y="410" as="sourcePoint" />
            <mxPoint x="570" y="360" as="targetPoint" />
          </mxGeometry>
        </mxCell>
        <mxCell id="d7M0JOHdm0b0EtyHFHnC-5" value="" style="endArrow=none;html=1;rounded=0;entryDx=0;entryDy=0;entryPerimeter=0;exitX=0.7;exitY=0;exitDx=0;exitDy=0;exitPerimeter=0;" edge="1" parent="1" source="zRu4ixjuDNPaifkA6n76-11" target="d7M0JOHdm0b0EtyHFHnC-4">
          <mxGeometry width="50" height="50" relative="1" as="geometry">
            <mxPoint x="604" y="340" as="sourcePoint" />
            <mxPoint x="604" y="180" as="targetPoint" />
          </mxGeometry>
        </mxCell>
        <mxCell id="d7M0JOHdm0b0EtyHFHnC-4" value="" style="shape=waypoint;sketch=0;fillStyle=solid;size=6;pointerEvents=1;points=[];fillColor=none;resizable=0;rotatable=0;perimeter=centerPerimeter;snapToPoint=1;strokeWidth=3;" vertex="1" parent="1">
          <mxGeometry x="594" y="292" width="20" height="20" as="geometry" />
        </mxCell>
        <mxCell id="d7M0JOHdm0b0EtyHFHnC-6" value="" style="endArrow=none;html=1;rounded=0;entryX=1;entryY=1;entryDx=0;entryDy=0;entryPerimeter=0;exitX=0.6;exitY=0.7;exitDx=0;exitDy=0;exitPerimeter=0;" edge="1" parent="1" source="d7M0JOHdm0b0EtyHFHnC-4" target="zRu4ixjuDNPaifkA6n76-1">
          <mxGeometry width="50" height="50" relative="1" as="geometry">
            <mxPoint x="604" y="300" as="sourcePoint" />
            <mxPoint x="570" y="360" as="targetPoint" />
          </mxGeometry>
        </mxCell>
      </root>
    </mxGraphModel>
  </diagram>
</mxfile>
